<svg id="Layer_1" data-name="Layer 1" xmlns="http://www.w3.org/2000/svg" viewBox="0 0 803 326"><defs><style>.cls-1{fill:#6698d0;}.cls-2,.cls-3,.cls-5{isolation:isolate;}.cls-3,.cls-5{font-size:45.4px;font-family:DINAlternate-Bold, DIN Alternate;font-weight:700;}.cls-3,.cls-5,.cls-9{fill:#fff;}.cls-3{letter-spacing:-0.08em;}.cls-4{letter-spacing:0em;}.cls-6{letter-spacing:-0.02em;}.cls-7{fill:#f0efef;}.cls-8{fill:#93b5db;}.cls-10,.cls-11{fill:none;}.cls-10{stroke:#707071;stroke-width:0.45px;}.cls-11{stroke:#93b5db;stroke-width:1.35px;}</style></defs><rect class="cls-1" width="803" height="326"/><g id="Your_1_Destination_For_Sports_Commentary" data-name="Your 1 Destination For Sports Commentary" class="cls-2"><text class="cls-3" transform="translate(19.95 165.13)">Y<tspan class="cls-4" x="19.07" y="0">our #1</tspan></text><text class="cls-5" transform="translate(19.95 233.23)">Destination <tspan class="cls-6" x="225.15" y="0">F</tspan><tspan x="248.71" y="0">or</tspan></text><text class="cls-5" transform="translate(19.95 301.33)">Sports Commentary</text></g><rect id="Rectangle_2" data-name="Rectangle 2" class="cls-7" x="453.71" width="338.11" height="326"/><rect id="Rectangle_8" data-name="Rectangle 8" class="cls-8" x="453.71" y="174.88" width="338.11" height="151.12"/><rect id="Rectangle_3" data-name="Rectangle 3" class="cls-8" x="453.71" width="338.11" height="19.73"/><g id="Ellipse_1" data-name="Ellipse 1"><circle class="cls-9" cx="463.58" cy="9.87" r="3.59"/><circle class="cls-10" cx="463.58" cy="9.87" r="3.36"/></g><g id="Ellipse_2" data-name="Ellipse 2"><circle class="cls-9" cx="475.23" cy="9.87" r="3.59"/><circle class="cls-10" cx="475.23" cy="9.87" r="3.36"/></g><g id="Ellipse_3" data-name="Ellipse 3"><circle class="cls-9" cx="486.89" cy="9.87" r="3.59"/><circle class="cls-10" cx="486.89" cy="9.87" r="3.36"/></g><g id="Rectangle_4" data-name="Rectangle 4"><rect class="cls-9" x="467.61" y="65.92" width="146.63" height="90.58"/><rect class="cls-11" x="468.28" y="66.59" width="145.29" height="89.23"/></g><rect id="Rectangle_9" data-name="Rectangle 9" class="cls-9" x="631.73" y="65.92" width="146.63" height="90.58"/><rect id="Rectangle_6" data-name="Rectangle 6" class="cls-9" x="467.61" y="190.58" width="146.63" height="135.42"/><rect id="Rectangle_7" data-name="Rectangle 7" class="cls-9" x="631.73" y="190.58" width="146.63" height="41.25"/><rect id="Rectangle_10" data-name="Rectangle 10" class="cls-9" x="631.73" y="250.66" width="146.63" height="41.25"/><g id="Rectangle_5" data-name="Rectangle 5"><rect class="cls-9" x="631.73" y="65.92" width="146.63" height="90.58"/><rect class="cls-11" x="632.4" y="66.59" width="145.29" height="89.23"/></g><path id="Polygon_1" data-name="Polygon 1" class="cls-8" d="M554.6,293.43l-27.35,15.92V277.51Z" transform="translate(0 -182)"/><path id="Polygon_2" data-name="Polygon 2" class="cls-8" d="M718.72,293.43l-27.35,15.92V277.51Z" transform="translate(0 -182)"/><line id="Line_2" data-name="Line 2" class="cls-11" x1="483.53" y1="213.22" x2="599.22" y2="213.22"/><line id="Line_18" data-name="Line 18" class="cls-11" x1="667.38" y1="201.11" x2="762.89" y2="201.11"/><line id="Line_21" data-name="Line 21" class="cls-11" x1="667.38" y1="261.2" x2="762.89" y2="261.2"/><line id="Line_9" data-name="Line 9" class="cls-11" x1="483.53" y1="244.16" x2="599.22" y2="244.16"/><line id="Line_12" data-name="Line 12" class="cls-11" x1="483.53" y1="275.1" x2="599.22" y2="275.1"/><line id="Line_15" data-name="Line 15" class="cls-11" x1="483.53" y1="306.04" x2="599.22" y2="306.04"/><line id="Line_3" data-name="Line 3" class="cls-11" x1="483.53" y1="223.54" x2="599.22" y2="223.54"/><line id="Line_4" data-name="Line 4" class="cls-11" x1="483.53" y1="223.54" x2="599.22" y2="223.54"/><line id="Line_5" data-name="Line 5" class="cls-11" x1="483.53" y1="223.54" x2="599.22" y2="223.54"/><line id="Line_6" data-name="Line 6" class="cls-11" x1="483.53" y1="223.54" x2="599.22" y2="223.54"/><line id="Line_7" data-name="Line 7" class="cls-11" x1="483.53" y1="223.54" x2="599.22" y2="223.54"/><line id="Line_19" data-name="Line 19" class="cls-11" x1="647.2" y1="211.43" x2="762.89" y2="211.43"/><line id="Line_22" data-name="Line 22" class="cls-11" x1="647.2" y1="271.52" x2="762.89" y2="271.52"/><line id="Line_10" data-name="Line 10" class="cls-11" x1="483.53" y1="254.48" x2="599.22" y2="254.48"/><line id="Line_13" data-name="Line 13" class="cls-11" x1="483.53" y1="285.42" x2="599.22" y2="285.42"/><line id="Line_16" data-name="Line 16" class="cls-11" x1="483.53" y1="316.36" x2="599.22" y2="316.36"/><line id="Line_8" data-name="Line 8" class="cls-11" x1="483.53" y1="233.85" x2="599.22" y2="233.85"/><line id="Line_20" data-name="Line 20" class="cls-11" x1="647.2" y1="221.74" x2="748.54" y2="221.74"/><line id="Line_23" data-name="Line 23" class="cls-11" x1="647.2" y1="281.83" x2="748.54" y2="281.83"/><line id="Line_11" data-name="Line 11" class="cls-11" x1="483.53" y1="264.79" x2="599.22" y2="264.79"/><line id="Line_14" data-name="Line 14" class="cls-11" x1="483.53" y1="295.73" x2="599.22" y2="295.73"/></svg>