<?xml version="1.0" encoding="utf-8"?>
<!-- Generator: Adobe Illustrator 24.1.2, SVG Export Plug-In . SVG Version: 6.00 Build 0)  -->
<svg version="1.1" id="Layer_1" xmlns="http://www.w3.org/2000/svg" xmlns:xlink="http://www.w3.org/1999/xlink" x="0px" y="0px"
	 viewBox="0 0 612 792" style="enable-background:new 0 0 612 792;" xml:space="preserve">
<style type="text/css">
	.st0{fill:#F0EFEF;}
	.st1{fill:#93B5DB;}
	.st2{fill:#FFFFFF;}
	.st3{fill:none;stroke:#707071;stroke-width:0.496;}
	.st4{fill:none;stroke:#93B5DB;stroke-width:1.4881;}
</style>
<rect id="Rectangle_2" x="156" y="234.7" class="st0" width="374" height="360.61"/>
<rect id="Rectangle_8" x="156" y="428.14" class="st1" width="374" height="167.16"/>
<rect id="Rectangle_3" x="156" y="234.7" class="st1" width="374" height="21.82"/>
<g id="Ellipse_1" transform="translate(14 14)">
	<circle class="st2" cx="152.91" cy="231.61" r="3.97"/>
	<circle class="st3" cx="152.91" cy="231.61" r="3.72"/>
</g>
<g id="Ellipse_2" transform="translate(40 14)">
	<circle class="st2" cx="139.81" cy="231.61" r="3.97"/>
	<circle class="st3" cx="139.81" cy="231.61" r="3.72"/>
</g>
<g id="Ellipse_3" transform="translate(66 14)">
	<circle class="st2" cx="126.71" cy="231.61" r="3.97"/>
	<circle class="st3" cx="126.71" cy="231.61" r="3.72"/>
</g>
<g id="Rectangle_4" transform="translate(31 147)">
	<rect x="140.38" y="160.61" class="st2" width="162.2" height="100.2"/>
	<rect x="141.12" y="161.36" class="st4" width="160.71" height="98.71"/>
</g>
<rect id="Rectangle_6" x="171.38" y="445.51" class="st2" width="162.2" height="149.8"/>
<rect id="Rectangle_7" x="352.92" y="445.51" class="st2" width="162.2" height="45.63"/>
<rect id="Rectangle_10" x="352.92" y="511.97" class="st2" width="162.2" height="45.63"/>
<g id="Rectangle_5" transform="translate(397 147)">
	<rect x="-44.08" y="160.61" class="st2" width="162.2" height="100.2"/>
	<rect x="-43.34" y="161.36" class="st4" width="160.71" height="98.71"/>
</g>
<path id="Polygon_1" class="st1" d="M267.6,357.96l-30.26,17.61v-35.22L267.6,357.96z"/>
<path id="Polygon_2" class="st1" d="M449.15,357.96l-30.26,17.61v-35.22L449.15,357.96z"/>
<line id="Line_2" class="st4" x1="188.99" y1="470.55" x2="316.96" y2="470.55"/>
<line id="Line_18" class="st4" x1="392.35" y1="457.16" x2="498.01" y2="457.16"/>
<line id="Line_21" class="st4" x1="392.35" y1="523.63" x2="498.01" y2="523.63"/>
<line id="Line_9" class="st4" x1="188.99" y1="504.78" x2="316.96" y2="504.78"/>
<line id="Line_12" class="st4" x1="188.99" y1="539.01" x2="316.96" y2="539.01"/>
<line id="Line_15" class="st4" x1="188.99" y1="573.23" x2="316.96" y2="573.23"/>
<line id="Line_7" class="st4" x1="188.99" y1="481.96" x2="316.96" y2="481.96"/>
<line id="Line_19" class="st4" x1="370.03" y1="468.57" x2="498.01" y2="468.57"/>
<line id="Line_22" class="st4" x1="370.03" y1="535.04" x2="498.01" y2="535.04"/>
<line id="Line_10" class="st4" x1="188.99" y1="516.19" x2="316.96" y2="516.19"/>
<line id="Line_13" class="st4" x1="188.99" y1="550.41" x2="316.96" y2="550.41"/>
<line id="Line_16" class="st4" x1="188.99" y1="584.64" x2="316.96" y2="584.64"/>
<line id="Line_8" class="st4" x1="188.99" y1="493.37" x2="316.96" y2="493.37"/>
<line id="Line_20" class="st4" x1="370.03" y1="479.98" x2="482.13" y2="479.98"/>
<line id="Line_23" class="st4" x1="370.03" y1="546.45" x2="482.13" y2="546.45"/>
<line id="Line_11" class="st4" x1="188.99" y1="527.6" x2="316.96" y2="527.6"/>
<line id="Line_14" class="st4" x1="188.99" y1="561.82" x2="316.96" y2="561.82"/>
</svg>
