<?xml version="1.0" encoding="utf-8"?>
<!-- Generator: Adobe Illustrator 24.1.2, SVG Export Plug-In . SVG Version: 6.00 Build 0)  -->
<svg version="1.1" id="Layer_1" xmlns="http://www.w3.org/2000/svg" xmlns:xlink="http://www.w3.org/1999/xlink" x="0px" y="0px"
	 viewBox="0 0 792 612" style="enable-background:new 0 0 792 612;" xml:space="preserve">
<style type="text/css">
	.st0{fill:#6698D0;}
	.st1{fill:#FFFFFF;}
	.st2{font-family:'DINAlternate-Bold';}
	.st3{font-size:45.402px;}
	.st4{fill:#F0EFEF;}
	.st5{fill:#93B5DB;}
	.st6{fill:none;stroke:#707071;stroke-width:0.4484;}
	.st7{fill:none;stroke:#93B5DB;stroke-width:1.3452;}
</style>
<rect x="-3" y="182" class="st0" width="803" height="347"/>
<text transform="matrix(1 0 0 1 19.9492 347.1274)" class="st1 st2 st3">Your #1</text>
<text transform="matrix(1 0 0 1 19.9492 415.2305)" class="st1 st2 st3">Destination For</text>
<text transform="matrix(1 0 0 1 19.9492 483.333)" class="st1 st2 st3">Sports Commentary</text>
<rect id="Rectangle_2" x="453.71" y="182" class="st4" width="338.11" height="326"/>
<rect id="Rectangle_8" x="453.71" y="356.88" class="st5" width="338.11" height="151.12"/>
<rect id="Rectangle_3" x="453.71" y="182" class="st5" width="338.11" height="19.73"/>
<g id="Ellipse_1" transform="translate(1019 14)">
	<circle class="st1" cx="-555.42" cy="177.87" r="3.59"/>
	<circle class="st6" cx="-555.42" cy="177.87" r="3.36"/>
</g>
<g id="Ellipse_2" transform="translate(1045 14)">
	<circle class="st1" cx="-569.77" cy="177.87" r="3.59"/>
	<circle class="st6" cx="-569.77" cy="177.87" r="3.36"/>
</g>
<g id="Ellipse_3" transform="translate(1071 14)">
	<circle class="st1" cx="-584.11" cy="177.87" r="3.59"/>
	<circle class="st6" cx="-584.11" cy="177.87" r="3.36"/>
</g>
<g id="Rectangle_4" transform="translate(1036 147)">
	<rect x="-568.39" y="100.92" class="st1" width="146.63" height="90.58"/>
	<rect x="-567.72" y="101.59" class="st7" width="145.29" height="89.23"/>
</g>
<rect id="Rectangle_9" x="631.73" y="247.92" class="st1" width="146.63" height="90.58"/>
<rect id="Rectangle_6" x="467.61" y="372.58" class="st1" width="146.63" height="135.42"/>
<rect id="Rectangle_7" x="631.73" y="372.58" class="st1" width="146.63" height="41.25"/>
<rect id="Rectangle_10" x="631.73" y="432.66" class="st1" width="146.63" height="41.25"/>
<g id="Rectangle_5" transform="translate(1402 147)">
	<rect x="-770.27" y="100.92" class="st1" width="146.63" height="90.58"/>
	<rect x="-769.6" y="101.59" class="st7" width="145.29" height="89.23"/>
</g>
<path id="Polygon_1" class="st5" d="M554.6,293.43l-27.35,15.92v-31.84L554.6,293.43z"/>
<path id="Polygon_2" class="st5" d="M718.72,293.43l-27.35,15.92v-31.84L718.72,293.43z"/>
<line id="Line_2" class="st7" x1="483.53" y1="395.22" x2="599.22" y2="395.22"/>
<line id="Line_18" class="st7" x1="667.38" y1="383.11" x2="762.89" y2="383.11"/>
<line id="Line_21" class="st7" x1="667.38" y1="443.2" x2="762.89" y2="443.2"/>
<line id="Line_9" class="st7" x1="483.53" y1="426.16" x2="599.22" y2="426.16"/>
<line id="Line_12" class="st7" x1="483.53" y1="457.1" x2="599.22" y2="457.1"/>
<line id="Line_15" class="st7" x1="483.53" y1="488.04" x2="599.22" y2="488.04"/>
<line id="Line_3" class="st7" x1="483.53" y1="405.54" x2="599.22" y2="405.54"/>
<line id="Line_4" class="st7" x1="483.53" y1="405.54" x2="599.22" y2="405.54"/>
<line id="Line_5" class="st7" x1="483.53" y1="405.54" x2="599.22" y2="405.54"/>
<line id="Line_6" class="st7" x1="483.53" y1="405.54" x2="599.22" y2="405.54"/>
<line id="Line_7" class="st7" x1="483.53" y1="405.54" x2="599.22" y2="405.54"/>
<line id="Line_19" class="st7" x1="647.2" y1="393.43" x2="762.89" y2="393.43"/>
<line id="Line_22" class="st7" x1="647.2" y1="453.52" x2="762.89" y2="453.52"/>
<line id="Line_10" class="st7" x1="483.53" y1="436.48" x2="599.22" y2="436.48"/>
<line id="Line_13" class="st7" x1="483.53" y1="467.42" x2="599.22" y2="467.42"/>
<line id="Line_16" class="st7" x1="483.53" y1="498.36" x2="599.22" y2="498.36"/>
<line id="Line_8" class="st7" x1="483.53" y1="415.85" x2="599.22" y2="415.85"/>
<line id="Line_20" class="st7" x1="647.2" y1="403.74" x2="748.54" y2="403.74"/>
<line id="Line_23" class="st7" x1="647.2" y1="463.83" x2="748.54" y2="463.83"/>
<line id="Line_11" class="st7" x1="483.53" y1="446.79" x2="599.22" y2="446.79"/>
<line id="Line_14" class="st7" x1="483.53" y1="477.73" x2="599.22" y2="477.73"/>
</svg>
